<?xml version="1.0" encoding="UTF-8"?>
<svg xmlns="http://www.w3.org/2000/svg" xmlns:xlink="http://www.w3.org/1999/xlink" width="40pt" height="40pt" viewBox="0 0 40 40" version="1.1">
<defs>
<linearGradient id="linear0" gradientUnits="userSpaceOnUse" x1="85.669441" y1="15.46119" x2="86.341309" y2="158.570557" gradientTransform="matrix(0.162791,0,0,0.162791,6,6)">
<stop offset="0" style="stop-color:rgb(10.196079%,42.745098%,100%);stop-opacity:1;"/>
<stop offset="1" style="stop-color:rgb(78.431374%,13.333334%,100%);stop-opacity:1;"/>
</linearGradient>
<linearGradient id="linear1" gradientUnits="userSpaceOnUse" x1="86" y1="26.875" x2="86" y2="143.904877" gradientTransform="matrix(0.162791,0,0,0.162791,6,6)">
<stop offset="0" style="stop-color:rgb(54.11765%,70.588237%,100%);stop-opacity:1;"/>
<stop offset="1" style="stop-color:rgb(89.411765%,57.254905%,100%);stop-opacity:1;"/>
</linearGradient>
</defs>
<g id="surface24641692">
<path style=" stroke:none;fill-rule:nonzero;fill:url(#linear0);" d="M 20 31.375 C 13.726562 31.375 8.625 26.273438 8.625 20 C 8.625 13.726562 13.726562 8.625 20 8.625 C 26.273438 8.625 31.375 13.726562 31.375 20 C 31.375 26.273438 26.273438 31.375 20 31.375 Z M 20 9.5 C 14.210938 9.5 9.5 14.210938 9.5 20 C 9.5 25.789062 14.210938 30.5 20 30.5 C 25.789062 30.5 30.5 25.789062 30.5 20 C 30.5 14.210938 25.789062 9.5 20 9.5 Z M 20 9.5 "/>
<path style=" stroke:none;fill-rule:nonzero;fill:url(#linear1);" d="M 20 29.625 C 14.691406 29.625 10.375 25.308594 10.375 20 C 10.375 14.691406 14.691406 10.375 20 10.375 C 25.308594 10.375 29.625 14.691406 29.625 20 C 29.625 25.308594 25.308594 29.625 20 29.625 Z M 20 11.25 C 15.175781 11.25 11.25 15.175781 11.25 20 C 11.25 24.824219 15.175781 28.75 20 28.75 C 24.824219 28.75 28.75 24.824219 28.75 20 C 28.75 15.175781 24.824219 11.25 20 11.25 Z M 20 11.25 "/>
</g>
</svg>
